<?xml version="1.0" standalone="no"?>
<!DOCTYPE svg PUBLIC "-//W3C//DTD SVG 1.1//EN" "http://www.w3.org/Graphics/SVG/1.1/DTD/svg11.dtd" >
<svg xmlns="http://www.w3.org/2000/svg">
<metadata>
This is a custom SVG webfont generated by Font Squirrel.
Copyright   : Generated in 2010 by FontLab Studio Copyright info pending
</metadata>
<defs>
<font id="FuturaOTKFRegular" horiz-adv-x="1161" >
<font-face units-per-em="2048" ascent="1536" descent="-512" />
<missing-glyph horiz-adv-x="512" />
<glyph unicode=" "  horiz-adv-x="512" />
<glyph unicode="&#x09;" horiz-adv-x="512" />
<glyph unicode="&#xa0;" horiz-adv-x="512" />
<glyph unicode="!" horiz-adv-x="571" d="M184 82q0 41 30 70.5t71 29.5q43 0 72.5 -29.5t29.5 -70.5q0 -43 -29.5 -72.5t-72.5 -29.5q-41 0 -71 29.5t-30 72.5zM211 276v1090h149v-1090h-149z" />
<glyph unicode="&#x22;" horiz-adv-x="673" d="M109 1366h165l-28 -549h-111zM401 1366h164l-26 -549h-111z" />
<glyph unicode="#" horiz-adv-x="1228" d="M100 434v123h234l35 285h-217v123h233l49 411l129 -16l-49 -395h289l51 411l127 -16l-49 -395h213v-123h-225l-37 -285h211v-123h-226l-55 -440l-127 18l51 422h-288l-56 -440l-127 18l51 422h-217zM465 557h287l34 285h-286z" />
<glyph unicode="$" d="M158 332l147 41q53 -231 244 -246v551q-174 72 -248 153.5t-74 202.5q0 133 87 227.5t235 116.5v185h121v-187q184 -27 286 -207l-118 -77q-43 68 -79 98.5t-89 42.5v-449q188 -84 262 -168t74 -217q0 -152 -91.5 -262t-244.5 -145v-199h-121v191q-152 8 -253 98 t-138 250zM381 1030q0 -117 168 -192v397q-78 -20 -123 -74.5t-45 -130.5zM670 137q86 35 134 100.5t48 153.5q0 78 -42 131t-140 101v-486z" />
<glyph unicode="%" horiz-adv-x="1464" d="M68 1081q0 125 89 212t216 87t215 -87t88 -212q0 -123 -89 -210t-214 -87q-127 0 -216 87t-89 210zM188 1083.5q0 -75.5 53.5 -130t131.5 -54.5q76 0 129 54.5t53 130t-53 130t-129 54.5q-78 0 -131.5 -54.5t-53.5 -130zM295 20l795 1373l77 -45l-794 -1375zM788 283 q0 125 89.5 212t216.5 87t215 -87t88 -212q0 -123 -89 -210t-214 -87q-127 0 -216.5 87t-89.5 210zM909 284.5q0 -75.5 53.5 -130t131.5 -54.5q76 0 129 54.5t53 130t-53.5 130t-128.5 54.5q-78 0 -131.5 -54.5t-53.5 -130z" />
<glyph unicode="&#x26;" horiz-adv-x="1302" d="M109 360q0 184 190 336q45 35 162 111q-80 106 -108.5 167.5t-28.5 125.5q0 125 85 207t214 82q123 0 206.5 -78t83.5 -193q0 -94 -49 -162.5t-192 -177.5l286 -366q72 76 156 180l109 -92q-80 -109 -174 -203l233 -297h-190l-150 190q-236 -217 -434 -217 q-170 0 -284.5 110.5t-114.5 276.5zM258 358q0 -98 74 -171.5t170 -73.5q141 0 350 190l-303 393q-10 -8 -74 -51q-121 -82 -169 -145.5t-48 -141.5zM469 1108q0 -43 16.5 -75t87.5 -130q2 0 5 -4l4 -4l2 -6q123 90 153.5 128t30.5 101q0 59 -43 99t-106.5 40t-106.5 -43 t-43 -106z" />
<glyph unicode="'" horiz-adv-x="382" d="M109 1366h165l-28 -549h-111z" />
<glyph unicode="(" horiz-adv-x="602" d="M195 502q0 281 59 583q39 182 82 289l135 -61q-129 -362 -129 -811q0 -446 129 -809l-135 -62q-43 102 -82 285q-59 303 -59 586z" />
<glyph unicode=")" horiz-adv-x="602" d="M127 -307q129 362 129 809q0 444 -129 811l133 61q45 -104 84 -289q59 -303 59 -583q0 -283 -59 -586q-41 -184 -84 -285z" />
<glyph unicode="*" d="M242 1198l43 129l237 -88l-10 254h137l-10 -254l238 88l43 -129l-246 -70l157 -198l-110 -82l-141 213l-140 -213l-110 82l157 198z" />
<glyph unicode="+" d="M98 635v125h420v411h125v-411h420v-125h-420v-414h-125v414h-420z" />
<glyph unicode="," horiz-adv-x="464" d="M49 -272l170 473l133 -49l-205 -463z" />
<glyph unicode="-" horiz-adv-x="370" d="M0 371v131h371v-131h-371z" />
<glyph unicode="." horiz-adv-x="464" d="M131 80q0 43 29.5 72.5t70.5 29.5q43 0 73 -29.5t30 -72.5q0 -41 -30 -70.5t-73 -29.5q-41 0 -70.5 29.5t-29.5 70.5z" />
<glyph unicode="/" horiz-adv-x="993" d="M-29 -313l893 1814l119 -53l-893 -1817z" />
<glyph unicode="0" d="M92 682q0 299 141.5 501.5t348.5 202.5q209 0 348 -200.5t139 -503.5q0 -299 -141.5 -502t-348 -203t-347 204t-140.5 501zM242 686q0 -244 95 -405.5t240.5 -161.5t244 162.5t98.5 402.5t-97.5 401.5t-242.5 161.5q-143 0 -240.5 -161.5t-97.5 -399.5z" />
<glyph unicode="1" d="M315 1225l80 141h299v-1366h-153v1225h-226z" />
<glyph unicode="2" d="M102 0l496 575q137 158 187.5 245t50.5 163q0 111 -79 187.5t-196 76.5q-248 0 -272 -280h-154q16 160 74 243q57 82 149.5 129t198.5 47q180 0 304 -116.5t124 -284.5q0 -115 -56.5 -216t-238.5 -308l-278 -320h571v-141h-881z" />
<glyph unicode="3" d="M133 354h148q16 -113 84.5 -174t177.5 -61q113 0 190.5 78.5t77.5 193.5q0 252 -291 258v133q270 6 271 234q0 98 -66 164.5t-164 66.5q-106 0 -160.5 -50t-74.5 -169h-150q53 358 379 358q168 0 276.5 -104t108.5 -262q0 -205 -174 -303q195 -92 195 -334 q0 -174 -121 -290t-303 -116q-115 0 -212.5 53.5t-146.5 145.5q-37 65 -45 178z" />
<glyph unicode="4" d="M39 223l852 1217v-1080h168v-137h-168v-223h-152v223h-700zM307 360h432v617z" />
<glyph unicode="5" d="M68 221l120 86q119 -188 310 -188q145 0 242.5 100t97.5 250q0 141 -98.5 238.5t-239.5 97.5q-119 0 -264 -92l198 653h543v-141h-436l-90 -293q43 8 77 8q199 0 329 -135t130 -340q0 -209 -143.5 -348.5t-358.5 -139.5q-265 0 -417 244z" />
<glyph unicode="6" d="M109 444q0 156 112 310l465 647l115 -86l-316 -438q63 20 123 20q184 0 312.5 -131t128.5 -322q0 -193 -137.5 -330t-332 -137t-332.5 137t-138 330zM258 440q0 -133 94 -227t227.5 -94t226.5 94t93 227t-93 227.5t-226.5 94.5t-227.5 -94.5t-94 -227.5z" />
<glyph unicode="7" d="M121 47l774 1178h-745v141h1005l-915 -1399z" />
<glyph unicode="8" d="M174 381q0 223 203 330q-168 100 -168 299q0 162 109.5 269t275.5 107q162 0 271.5 -107.5t109.5 -266.5q0 -92 -47 -174t-125 -127q94 -47 146 -133t52 -197q0 -176 -116.5 -290t-296.5 -114q-178 0 -296 115t-118 289zM324 381q0 -109 77.5 -185.5t186 -76.5 t186.5 76.5t78 185.5q0 106 -78 183t-186.5 77t-186 -77t-77.5 -183zM354 1009.5q0 -98.5 70 -168t168 -69.5t167.5 69.5t69.5 168t-69.5 168t-167.5 69.5t-168 -69.5t-70 -168z" />
<glyph unicode="9" d="M111 922q0 193 138 328.5t332.5 135.5t333 -136t138.5 -328q0 -154 -113 -310l-467 -645l-113 84l314 438q-66 -18 -121 -18q-186 0 -314 131.5t-128 319.5zM260 928q0 -133 94.5 -227.5t227.5 -94.5t227 94.5t94 227.5t-94 226t-227 93t-227.5 -93t-94.5 -226z" />
<glyph unicode=":" horiz-adv-x="464" d="M131 80q0 43 29.5 72.5t70.5 29.5q43 0 73 -29.5t30 -72.5q0 -41 -30 -70.5t-73 -29.5q-41 0 -70.5 29.5t-29.5 70.5zM131 768q0 41 29.5 70.5t70.5 29.5t71 -29.5t30 -70.5t-30 -70.5t-71 -29.5t-70.5 29.5t-29.5 70.5z" />
<glyph unicode=";" horiz-adv-x="464" d="M49 -272l170 473l133 -49l-205 -463zM164 768q0 41 29.5 70.5t70.5 29.5t71 -29.5t30 -70.5t-30 -70.5t-71 -29.5t-70.5 29.5t-29.5 70.5z" />
<glyph unicode="&#x3c;" horiz-adv-x="1024" d="M68 623v133l886 418v-154l-723 -330l723 -332v-151z" />
<glyph unicode="=" d="M98 510v119h965v-119h-965zM98 764v119h965v-119h-965z" />
<glyph unicode="&#x3e;" horiz-adv-x="1024" d="M70 207v151l723 332l-723 330v154l886 -418v-133z" />
<glyph unicode="?" horiz-adv-x="892" d="M117 1079q0 127 96 215t238 88q139 0 233 -94t94 -233q0 -82 -34.5 -154t-94.5 -110q-51 -35 -211 -84q-139 -39 -139 -150q0 -63 42 -105t105 -42q133 0 146 176h147q-2 -143 -81.5 -228.5t-211.5 -85.5q-127 0 -210.5 85t-83.5 210q0 102 59 169t188 108q131 41 170 71 q59 47 60 138q0 82 -52.5 135t-134.5 53q-76 0 -128 -50t-52 -124q0 -37 12 -90h-149q-8 51 -8 102zM346 82q0 41 29.5 70.5t70.5 29.5q43 0 73 -29.5t30 -70.5q0 -43 -30 -72.5t-73 -29.5q-41 0 -70.5 29.5t-29.5 72.5z" />
<glyph unicode="@" horiz-adv-x="1474" d="M51 682q0 299 205 504t506 205q279 0 465 -175.5t186 -437.5q0 -199 -98 -344t-234 -145q-109 0 -145 119q-63 -68 -119.5 -95.5t-132.5 -27.5q-150 0 -247 105.5t-97 264.5q0 174 109.5 288t279.5 114q141 0 236 -115l10 98h135l-55 -465q-6 -37 -6 -98q0 -59 53 -59 q74 0 131 107.5t57 242.5q0 221 -148.5 360.5t-383.5 139.5q-242 0 -408 -170t-166 -418q0 -256 169 -418t438 -162q127 0 217 22.5t231 90.5l43 -119q-244 -119 -491 -119q-324 0 -532 199t-208 508zM496 651q0 -102 55 -167.5t141 -65.5q98 0 171 87t73 206 q0 94 -56.5 153.5t-146.5 59.5q-100 0 -168.5 -79t-68.5 -194z" />
<glyph unicode="A" horiz-adv-x="1269" d="M14 0l629 1432l614 -1432h-167l-162 387h-584l-164 -387h-166zM408 528h460l-227 547z" />
<glyph unicode="B" horiz-adv-x="1085" d="M178 0v1366h248q205 0 309 -86q59 -47 93 -123t34 -160q0 -170 -135 -266q121 -35 189.5 -127t68.5 -219q0 -180 -137 -293q-115 -92 -330 -92h-340zM332 141h174q94 0 145 12.5t94 47.5q88 76 89 190q0 61 -32 116.5t-83 84.5q-74 43 -234 43h-153v-494zM332 764h114 q266 0 267 233q0 227 -262 228h-119v-461z" />
<glyph unicode="C" horiz-adv-x="1323" d="M102 678q0 293 210 502t503 209q115 0 208 -31t198 -105v-188q-188 180 -416 180q-223 0 -386 -167t-163 -396q0 -233 162 -398t391 -165q221 0 412 178v-188q-197 -133 -408 -134q-293 0 -502 207t-209 496z" />
<glyph unicode="D" horiz-adv-x="1296" d="M178 1366h281q315 0 502 -158q236 -195 235 -528q0 -324 -240 -522q-100 -84 -216.5 -121t-282.5 -37h-279v1366zM332 141h133q260 0 418.5 148.5t158.5 392.5q0 248 -157.5 395.5t-419.5 147.5h-133v-1084z" />
<glyph unicode="E" horiz-adv-x="987" d="M178 0v1366h707v-141h-553v-408h538v-141h-538v-535h553v-141h-707z" />
<glyph unicode="F" horiz-adv-x="886" d="M178 0v1366h621v-141h-467v-408h452v-141h-452v-676h-154z" />
<glyph unicode="G" horiz-adv-x="1552" d="M102 680q0 297 210 503t511 206q168 0 302.5 -71t265.5 -226l-113 -103q-193 256 -455 256q-238 0 -402.5 -165t-164.5 -402q0 -229 164 -394t391 -165q123 0 240.5 65.5t179.5 167.5q47 74 55 193h-405v141h569v-35q0 -147 -28.5 -245.5t-98.5 -184.5 q-92 -115 -230.5 -180.5t-289.5 -65.5q-287 0 -494 208t-207 497z" />
<glyph unicode="H" horiz-adv-x="1357" d="M178 0v1366h154v-557h696v557h154v-1366h-154v668h-696v-668h-154z" />
<glyph unicode="I" horiz-adv-x="507" d="M178 0v1366h154v-1366h-154z" />
<glyph unicode="J" horiz-adv-x="628" d="M-96 -41l84 119q51 -45 82.5 -60.5t74.5 -15.5q80 0 116 62.5t36 197.5v1104h154v-1104q0 -129 -22.5 -201.5t-80.5 -123.5q-82 -78 -194 -78q-125 0 -250 100z" />
<glyph unicode="K" horiz-adv-x="1165" d="M178 0v1366h154v-586l581 586h205l-641 -637l662 -729h-209l-559 627l-39 -39v-588h-154z" />
<glyph unicode="L" horiz-adv-x="733" d="M178 0v1366h154v-1225h375v-141h-529z" />
<glyph unicode="M" horiz-adv-x="1767" d="M129 0l225 1442l525 -1153l536 1155l211 -1444h-156l-127 950l-464 -1007l-459 1007l-135 -950h-156z" />
<glyph unicode="N" horiz-adv-x="1570" d="M178 0v1423l1063 -1116v1059h154v-1427l-1063 1114v-1053h-154z" />
<glyph unicode="O" horiz-adv-x="1626" d="M102 680q0 291 210 500t503 209q291 0 500 -208t209 -499t-209 -499t-500 -208q-295 0 -504 207t-209 498zM256 680q0 -231 164 -396t393 -165t393 165t164 396q0 236 -163 400.5t-394 164.5t-394 -164.5t-163 -400.5z" />
<glyph unicode="P" horiz-adv-x="935" d="M178 0v1366h248q233 0 344 -96q127 -106 127 -289q0 -178 -115.5 -280.5t-316.5 -102.5h-133v-598h-154zM332 737h123q141 0 217 64.5t76 183.5q0 240 -304 240h-112v-488z" />
<glyph unicode="Q" horiz-adv-x="1626" d="M102 680q0 293 209 501t504 208q293 0 501 -210t208 -505q0 -139 -45 -250t-152 -229l205 -209h-195l-114 123q-186 -133 -412 -134q-293 0 -501 207t-208 498zM256 680q0 -236 161 -398.5t392 -162.5q172 0 307 98l-330 332h199l236 -246q82 90 115.5 176t33.5 203 q0 236 -163 399.5t-394 163.5q-233 0 -395 -163.5t-162 -401.5z" />
<glyph unicode="R" horiz-adv-x="1028" d="M178 0v1366h221q219 0 328 -74q70 -47 111 -129t41 -174q0 -160 -93.5 -261t-250.5 -118l434 -610h-187l-411 598h-39v-598h-154zM332 733h96q301 0 301 256q0 236 -307 236h-90v-492z" />
<glyph unicode="S" horiz-adv-x="1058" d="M102 328l148 41q55 -250 274 -250q119 0 199 76.5t80 191.5q0 125 -113 195q-53 35 -119 61l-41 21l-41 18l-40 18q-147 66 -212 145t-65 193q0 150 109.5 250.5t273.5 100.5q229 0 352 -213l-121 -78q-51 82 -103 114.5t-132 32.5q-96 0 -160.5 -60.5t-64.5 -150.5 q0 -88 86 -147q61 -39 106 -58l43 -20l43 -18l43 -19q164 -72 236.5 -160t72.5 -215q0 -176 -124.5 -299t-305.5 -123q-164 0 -273.5 91.5t-150.5 261.5z" />
<glyph unicode="T" horiz-adv-x="870" d="M27 1225v141h815v-141h-332v-1225h-154v1225h-329z" />
<glyph unicode="U" horiz-adv-x="1329" d="M178 487v879h154v-838q0 -184 45 -262q41 -66 121 -106.5t168 -40.5t166.5 41t119.5 106q45 78 45 262v838h154v-879q0 -209 -90 -323q-68 -88 -173.5 -138.5t-221.5 -50.5q-119 0 -225.5 50.5t-172.5 138.5q-90 114 -90 323z" />
<glyph unicode="V" horiz-adv-x="1134" d="M14 1366h168l387 -1040l387 1040h166l-555 -1446z" />
<glyph unicode="W" horiz-adv-x="1955" d="M14 1366h166l365 -1024l428 1094l403 -1094l402 1024h166l-572 -1436l-403 1092l-430 -1092z" />
<glyph unicode="X" horiz-adv-x="1028" d="M27 0l403 707l-369 659h175l282 -514l289 514h174l-377 -659l395 -707h-170l-313 561l-317 -561h-172z" />
<glyph unicode="Y" horiz-adv-x="1081" d="M14 1366h176l349 -610l352 610h178l-455 -778v-588h-153v588z" />
<glyph unicode="Z" horiz-adv-x="1093" d="M47 0l746 1225h-650v141h901l-743 -1225h725v-141h-979z" />
<glyph unicode="[" horiz-adv-x="595" d="M164 -360v1726h344v-137h-195v-1452h195v-137h-344z" />
<glyph unicode="\" horiz-adv-x="993" d="M10 1448l119 53l893 -1814l-119 -56z" />
<glyph unicode="]" horiz-adv-x="595" d="M88 -223h195v1452h-195v137h344v-1726h-344v137z" />
<glyph unicode="^" horiz-adv-x="1024" d="M49 745l361 625h202l361 -625h-166l-297 502l-295 -502h-166z" />
<glyph unicode="_" horiz-adv-x="1024" d="M0 -131h1024v-141h-1024v141z" />
<glyph unicode="`" horiz-adv-x="1024" d="M233 1296l152 68l215 -295l-90 -51z" />
<glyph unicode="a" horiz-adv-x="899" d="M92 190q-7 34 -6 66q0 56 20 103q33 75 97.5 117t146.5 64q69 18 138 18l26 -1q82 -4 145 -29q-4 86 -53 137.5t-119 62.5q-38 6 -77 6q-32 0 -66 -4q-74 -9 -137 -38l-53 113q92 57 227 66q22 2 43 2q108 0 190 -39q184 -92 185 -379v-455h-140l-6 111 q-68 -84 -191 -114q-47 -11 -92 -11q-74 0 -143 30q-110 49 -135 174zM245 314q-9 -25 -9 -49q0 -38 20 -77q33 -57 101 -68q20 -3 41 -4q47 0 92 19q65 27 115 87.5t50 133.5v50q-82 31 -170 33q-7 0 -13 1q-81 0 -155 -34q-50 -30 -72 -92z" />
<glyph unicode="b" horiz-adv-x="1073" d="M139 0v1366h146v-637q121 139 295 139q176 0 291.5 -125t115.5 -317.5t-115.5 -321.5t-289.5 -129q-180 0 -297 142v-117h-146zM274 430q0 -143 79 -232t206 -89q121 0 200 90t79 231q0 129 -80 217t-197 88q-125 0 -206 -86t-81 -219z" />
<glyph unicode="c" horiz-adv-x="890" d="M84 420q0 190 131 319t324 129q139 0 262 -80v-192q-72 78 -131.5 108.5t-137.5 30.5q-127 0 -213 -90t-86 -223q0 -131 85 -222t208 -91q84 0 145.5 31.5t135.5 115.5v-193q-141 -88 -272 -88q-190 0 -320.5 128.5t-130.5 316.5z" />
<glyph unicode="d" horiz-adv-x="1073" d="M86 426q0 193 115.5 317.5t292.5 124.5q174 0 294 -139v637h146v-1366h-148v117q-106 -141 -292 -142q-174 0 -291 128t-117 323zM236 430q0 -141 78.5 -231t199.5 -90q129 0 206 88t77 233q0 137 -79 221t-206 84q-117 0 -196.5 -88t-79.5 -217z" />
<glyph unicode="e" horiz-adv-x="985" d="M84 426q0 195 115.5 318.5t298 123.5t293 -122.5t110.5 -321.5v-29h-663q6 -131 80.5 -208.5t189.5 -77.5q84 0 142.5 39.5t119.5 138.5l123 -70q-137 -242 -393 -242q-184 0 -300 125t-116 326zM248 518h500q-20 100 -88 159.5t-162 59.5q-92 0 -164 -62.5t-86 -156.5z " />
<glyph unicode="f" horiz-adv-x="489" d="M59 715v135h80v235q0 305 248 306q49 0 113 -19v-147q-57 20 -99 20q-70 0 -93 -40t-23 -154v-201h215v-135h-215v-715h-146v715h-80z" />
<glyph unicode="g" horiz-adv-x="1075" d="M84 422q0 195 116.5 321.5t295.5 126.5q172 0 292 -141v121h146v-832q0 -125 -17.5 -197.5t-64.5 -135.5q-117 -158 -338 -158q-184 0 -295.5 104.5t-118.5 284.5h144q23 -256 272 -256q272 0 272 334v125q-123 -141 -299 -142q-174 0 -289.5 127.5t-115.5 317.5z M233 424q0 -137 78 -225t201 -88t203 88t80 225t-79 225t-204 88q-121 0 -200 -88t-79 -225z" />
<glyph unicode="h" horiz-adv-x="960" d="M139 0v1366h146v-616q55 66 111.5 92t133.5 26q162 0 242 -116q49 -72 49 -226v-526h-145v516q0 117 -41 168t-135 51q-113 0 -164 -73.5t-51 -237.5v-424h-146z" />
<glyph unicode="i" horiz-adv-x="425" d="M106 1126q0 43 31 74t74 31t73.5 -31t30.5 -74t-30.5 -73.5t-73.5 -30.5t-74 30.5t-31 73.5zM139 0v850h146v-850h-146z" />
<glyph unicode="j" horiz-adv-x="425" d="M109 1126q0 43 30.5 74t73.5 31t73.5 -31t30.5 -74t-30.5 -73.5t-73.5 -30.5t-73.5 30.5t-30.5 73.5zM139 -479v1329h146v-1329h-146z" />
<glyph unicode="k" horiz-adv-x="862" d="M139 0v1366h146v-829l307 313h194l-362 -363l432 -487h-192l-342 387l-37 -37v-350h-146z" />
<glyph unicode="l" horiz-adv-x="423" d="M139 0v1366h146v-1366h-146z" />
<glyph unicode="m" horiz-adv-x="1392" d="M139 0v850h146v-92q84 113 211 112q158 0 233 -137q78 137 252 137q279 0 279 -331v-539h-146v516q0 117 -37 169t-119 52q-186 0 -186 -266v-471h-145v504q0 233 -154 233q-188 0 -188 -274v-463h-146z" />
<glyph unicode="n" horiz-adv-x="960" d="M139 0v850h146v-102q55 68 110.5 95t134.5 27q78 0 143.5 -31.5t100.5 -84.5q47 -76 47 -228v-526h-145v502q0 131 -40 184t-140 53q-111 0 -161 -74.5t-50 -240.5v-424h-146z" />
<glyph unicode="o" horiz-adv-x="1067" d="M84 422q0 186 131 316t317 130q190 0 320.5 -129t130.5 -317.5t-130 -317.5t-321 -129q-186 0 -317 130.5t-131 316.5zM233 422q0 -135 85 -224t212 -89q133 0 218.5 88t85.5 225t-85 225t-219 88q-129 0 -213 -89t-84 -224z" />
<glyph unicode="p" horiz-adv-x="1073" d="M139 -479v1329h146v-121q117 141 297 141q178 0 292.5 -129t114.5 -329q0 -186 -116.5 -311.5t-292.5 -125.5q-172 0 -295 144v-598h-146zM276 416q0 -133 81 -220t206 -87q117 0 197 89t80 216q0 143 -79 233t-200 90q-127 0 -206 -89t-79 -232z" />
<glyph unicode="q" horiz-adv-x="1073" d="M86 412q0 201 114.5 329.5t291.5 128.5q190 0 294 -141v121h148v-1329h-146v598q-123 -143 -294 -144q-174 0 -291 124.5t-117 312.5zM236 414q0 -127 79.5 -216t196.5 -89q127 0 206 85t79 222q0 145 -77 233t-206 88q-121 0 -199.5 -90t-78.5 -233z" />
<glyph unicode="r" horiz-adv-x="604" d="M139 0v850h146v-92q57 68 95 90t97 22q63 0 129 -36l-67 -132q-47 29 -86 29q-88 0 -128 -66.5t-40 -215.5v-449h-146z" />
<glyph unicode="s" horiz-adv-x="716" d="M72 193l129 53q37 -78 73.5 -107.5t98.5 -29.5q59 0 98 37.5t39 95.5q0 49 -28.5 77.5t-108.5 63.5q-147 66 -196.5 115t-49.5 133q0 102 71.5 169.5t182.5 67.5q152 0 227 -153l-121 -64q-45 84 -116 84q-43 0 -74 -26.5t-31 -65.5t28 -64.5t109 -58.5q154 -66 205 -119 t51 -149q0 -117 -83.5 -197t-204.5 -80q-217 1 -299 218z" />
<glyph unicode="t" horiz-adv-x="438" d="M51 715v135h88v307h146v-307h151v-135h-151v-715h-146v715h-88z" />
<glyph unicode="u" horiz-adv-x="952" d="M139 338v512h146v-496q0 -129 46 -187t146.5 -58t145.5 58t45 187v496h145v-512q0 -170 -78 -256q-94 -106 -258 -107q-166 0 -260 107q-78 86 -78 256z" />
<glyph unicode="v" horiz-adv-x="866" d="M16 850h164l254 -571l252 571h164l-416 -907z" />
<glyph unicode="w" horiz-adv-x="1396" d="M16 850h164l252 -576l266 641l265 -641l254 576h163l-422 -909l-262 632l-262 -632z" />
<glyph unicode="x" horiz-adv-x="929" d="M16 0l363 453l-309 397h178l221 -289l223 289h180l-311 -397l352 -453h-176l-268 346l-270 -346h-183z" />
<glyph unicode="y" horiz-adv-x="942" d="M16 850h168l301 -608l275 608h166l-629 -1329h-164l275 559z" />
<glyph unicode="z" horiz-adv-x="942" d="M16 0l617 715h-502v135h793l-613 -715h586v-135h-881z" />
<glyph unicode="{" horiz-adv-x="595" d="M104 446v121q63 16 90 59.5t27 123.5v333q0 150 60.5 216.5t197.5 66.5q29 0 53 -2v-127h-14q-92 0 -119.5 -34t-27.5 -144v-318q0 -100 -27 -150t-98 -89q70 -39 97.5 -92.5t27.5 -149.5v-307q0 -119 28.5 -151.5t132.5 -32.5v-127q-25 -2 -55 -2q-139 0 -197.5 69.5 t-58.5 233.5v313q0 88 -27 131t-90 59z" />
<glyph unicode="|" horiz-adv-x="1024" d="M436 -342v1708h154v-1708h-154z" />
<glyph unicode="}" horiz-adv-x="595" d="M63 -231h15q92 0 119.5 33.5t27.5 144.5v319q0 100 27 150.5t98 87.5q-70 39 -97.5 92t-27.5 149v306q0 121 -28 153q-27 31 -121 31h-13v129h56q139 0 197.5 -69.5t58.5 -231.5v-311q0 -88 26.5 -131t90.5 -62v-121q-63 -14 -90 -57t-27 -123v-338q0 -150 -60.5 -215 t-197.5 -65h-54v129z" />
<glyph unicode="~" horiz-adv-x="1366" d="M190 1251q63 131 127 183.5t154 52.5q76 0 229 -70q92 -43 127 -54t74 -11q57 0 96 30.5t86 108.5l93 -53q-115 -231 -289 -232q-53 0 -152 35q-8 4 -141 64q-80 37 -133 36q-102 0 -182 -149z" />
<glyph unicode="&#xa1;" horiz-adv-x="567" d="M184 965q0 41 30 70.5t71 29.5t70.5 -29.5t29.5 -70.5t-29.5 -71t-70.5 -30t-71 30t-30 71zM211 -319v1087h147v-1087h-147z" />
<glyph unicode="&#xa2;" d="M201 694q0 170 108.5 296t272.5 149v192h118v-190q111 -10 218 -78v-193q-106 119 -218 138v-623q115 18 224 145v-192q-123 -80 -224 -86v-203h-118v205q-164 23 -272.5 147.5t-108.5 292.5zM350 696.5q0 -114.5 64.5 -201.5t167.5 -108v617q-100 -20 -166 -106.5 t-66 -201z" />
<glyph unicode="&#xa3;" d="M109 53q111 166 264 174q59 90 59 172q0 29 -14 84h-230v117h181l-60 117q-55 104 -72.5 160.5t-17.5 126.5q0 160 117 270t287 110q176 0 282.5 -109.5t114.5 -295.5l-150 -41q-8 98 -22 147q-23 70 -83 111t-138 41q-109 0 -181.5 -69.5t-72.5 -174.5q0 -92 110 -295 q35 -59 52 -98h258v-117h-218q12 -45 13 -82q0 -82 -60 -194l119 -41q113 -41 154 -41q47 0 83 29.5t81 107.5l122 -74q-104 -211 -278 -211q-78 0 -227 54q-139 51 -193 51q-92 0 -164 -109z" />
<glyph unicode="&#xa4;" horiz-adv-x="1366" d="M109 1221l84 86l196 -195q94 63 154.5 85t142.5 22q80 0 140.5 -23t150.5 -82l194 193l84 -86l-192 -193q59 -88 80.5 -150.5t21.5 -142.5q0 -78 -21.5 -137t-80.5 -149l194 -197l-81 -84l-197 194q-86 -59 -149.5 -81.5t-145.5 -22.5q-76 0 -139.5 22.5t-153.5 79.5 l-194 -192l-84 84l194 192q-106 150 -106 291q0 82 22.5 145.5t79.5 145.5zM340 737.5q0 -143.5 101.5 -244t242.5 -100.5t242.5 100.5t101.5 244t-100.5 244.5t-243.5 101t-243.5 -101t-100.5 -244.5z" />
<glyph unicode="&#xa5;" d="M53 1366h176l349 -610l352 610h178l-272 -465h223v-117h-291l-102 -178h393v-117h-406v-489h-153v489h-398v117h385l-100 178h-285v117h217z" />
<glyph unicode="&#xa6;" horiz-adv-x="1024" d="M436 313h154v-655h-154v655zM436 682v684h154v-684h-154z" />
<glyph unicode="&#xa7;" d="M207 569q0 231 205 322q-172 98 -172 278q0 145 103 242.5t259 97.5q94 0 174 -44t119 -115q47 -86 53 -228h-143q-8 248 -203 248q-96 0 -155.5 -58.5t-59.5 -154.5q0 -92 70 -143q43 -31 180 -78q176 -61 246.5 -143t70.5 -222q0 -106 -48 -181t-156 -140 q96 -55 134 -118.5t38 -166.5q0 -154 -98.5 -248t-260.5 -94q-338 0 -352 381h147q8 -127 57.5 -183.5t151.5 -56.5q96 0 150.5 55.5t54.5 153.5q0 111 -88 166q-37 23 -184 82q-162 63 -227.5 140t-65.5 208zM358 573.5q0 -92.5 65.5 -158t156.5 -65.5q92 0 156.5 65.5 t64.5 158t-64.5 158t-157 65.5t-157 -65.5t-64.5 -158z" />
<glyph unicode="&#xa8;" horiz-adv-x="1024" d="M231 1126q0 43 30 73t73 30t72.5 -30t29.5 -73t-30.5 -72.5t-71.5 -29.5t-72 30.5t-31 71.5zM588 1126q0 43 29.5 73t72.5 30t73 -30t30 -73t-31 -72.5t-72 -29.5t-71.5 30.5t-30.5 71.5z" />
<glyph unicode="&#xa9;" horiz-adv-x="1515" d="M51 684q0 291 208 498t499 207t497.5 -207t206.5 -498q0 -293 -205.5 -500t-498.5 -207t-500 207t-207 500zM166 684q0 -246 173 -419t419 -173q244 0 417 173t173 419q0 244 -173.5 417t-416.5 173q-246 0 -419 -173t-173 -417zM360 680q0 168 127 292t299 124 q147 0 285 -117v-174q-66 78 -88 98q-82 78 -199 78q-121 0 -213 -92t-92 -215q0 -127 91.5 -217t220.5 -90q106 0 192 75q20 16 88 95v-172q-139 -111 -285 -111q-176 0 -301 125t-125 301z" />
<glyph unicode="&#xaa;" horiz-adv-x="614" d="M55 614v97h469v-97h-469zM76 965q-3 19 -4 36q0 48 25 86q34 53 90.5 74t120.5 26q12 1 24 1q50 0 90 -19q-4 68 -53 100q-44 28 -95 28q-7 0 -14 -1q-59 -4 -113 -26l-32 67q57 35 139 41q14 1 28 1q64 0 113 -23q111 -55 111 -232v-276h-84l-4 67q-41 -51 -117 -68 q-28 -6 -55 -7q-46 0 -88 19q-68 30 -82 106zM169 1040q-5 -15 -5 -29q0 -23 12 -48q20 -35 63 -42q13 -2 25 -3q29 0 57 12q40 16 69.5 53t29.5 82v29q-61 25 -113 24.5t-94 -24.5q-31 -17 -44 -54z" />
<glyph unicode="&#xab;" horiz-adv-x="882" d="M76 436l305 383l96 -74l-244 -309l244 -301l-96 -76zM381 436l305 383l94 -74l-243 -309l243 -301l-94 -76z" />
<glyph unicode="&#xac;" horiz-adv-x="1024" d="M68 403v144h886v-547h-153v403h-733z" />
<glyph unicode="&#xad;" horiz-adv-x="370" d="M0 371v131h371v-131h-371z" />
<glyph unicode="&#xae;" horiz-adv-x="1515" d="M51 684q0 291 208 498t499 207t497.5 -207t206.5 -498q0 -293 -205.5 -500t-498.5 -207t-500 207t-207 500zM166 684q0 -246 173 -419t419 -173q244 0 417 173t173 419q0 244 -173.5 417t-416.5 173q-246 0 -419 -173t-173 -417zM578 266v819h139q131 0 200.5 -59 t69.5 -174q0 -92 -49 -149.5t-139 -73.5l250 -363h-144l-211 309v-309h-116zM694 735h37q137 0 137 119t-147 119h-27v-238z" />
<glyph unicode="&#xaf;" horiz-adv-x="1024" d="M203 1051v123h618v-123h-618z" />
<glyph unicode="&#xb0;" horiz-adv-x="819" d="M102 1096q0 127 91.5 218t218.5 91q131 0 218 -89t87 -222q0 -131 -89 -222.5t-218 -91.5t-218.5 91.5t-89.5 224.5zM217 1087q0 -76 56.5 -133t129.5 -57q84 0 140.5 55.5t56.5 137.5q0 84 -55.5 141t-136.5 57q-80 0 -135.5 -58.5t-55.5 -142.5z" />
<glyph unicode="&#xb1;" horiz-adv-x="1124" d="M20 741v113h486v502h112v-502h486v-113h-486v-477h-112v477h-486zM23 0v113h1073v-113h-1073z" />
<glyph unicode="&#xb2;" horiz-adv-x="792" d="M84 547l319 350q84 92 115 142.5t31 93.5q0 63 -47 106t-117 43q-147 0 -164 -166h-108q10 104 49 156q80 106 221 106q115 0 193.5 -70.5t78.5 -172.5q0 -72 -34.5 -131.5t-151.5 -184.5l-162 -176h346v-96h-569z" />
<glyph unicode="&#xb3;" horiz-adv-x="792" d="M111 768h104q23 -139 158 -139q68 0 113.5 44t45.5 109q0 145 -180 148v92q168 2 168 135q0 53 -39 89t-96 36q-66 0 -96.5 -28.5t-44.5 -100.5h-107q18 117 76.5 171t167.5 54q104 0 175 -62.5t71 -156.5q0 -61 -21.5 -102t-77.5 -80q111 -74 111 -199q0 -106 -77 -176 t-193 -70q-113 0 -180.5 61.5t-77.5 174.5z" />
<glyph unicode="&#xb4;" horiz-adv-x="1024" d="M424 1069l215 295l152 -68l-277 -278z" />
<glyph unicode="&#xb5;" horiz-adv-x="1179" d="M68 -307q0 61 34 192q25 92 25 156v983h180v-678q0 -106 49.5 -166.5t137.5 -60.5q127 0 229 149v756h182v-756q0 -82 28 -133t73 -51q37 0 66.5 41t33.5 98l55 -2q-45 -248 -246 -248q-76 0 -120.5 44t-69.5 147q-164 -190 -317 -191q-51 0 -93.5 19.5t-107.5 75.5 q0 -92 24 -177q39 -135 39 -188q0 -70 -27.5 -111t-74.5 -41q-43 0 -71.5 41.5t-28.5 100.5z" />
<glyph unicode="&#x3bc;" horiz-adv-x="1179" d="M68 -307q0 61 34 192q25 92 25 156v983h180v-678q0 -106 49.5 -166.5t137.5 -60.5q127 0 229 149v756h182v-756q0 -82 28 -133t73 -51q37 0 66.5 41t33.5 98l55 -2q-45 -248 -246 -248q-76 0 -120.5 44t-69.5 147q-164 -190 -317 -191q-51 0 -93.5 19.5t-107.5 75.5 q0 -92 24 -177q39 -135 39 -188q0 -70 -27.5 -111t-74.5 -41q-43 0 -71.5 41.5t-28.5 100.5z" />
<glyph unicode="&#xb6;" d="M84 1014q0 170 102.5 261t292.5 91h588l-68 -119h-90v-1450h-129v1450h-217v-1450h-129v875h-31q-141 0 -230 95t-89 247z" />
<glyph unicode="&#xb7;" horiz-adv-x="460" d="M129 436q0 43 29.5 73t70.5 30q43 0 73 -30t30 -73q0 -41 -30 -70.5t-73 -29.5q-41 0 -70.5 29.5t-29.5 70.5z" />
<glyph unicode="&#xb8;" horiz-adv-x="1024" d="M373 -375l172 269l135 -56l-207 -262z" />
<glyph unicode="&#xb9;" horiz-adv-x="792" d="M221 1270l58 96h196v-819h-108v723h-146z" />
<glyph unicode="&#xba;" horiz-adv-x="733" d="M74 614v97h588v-97h-588zM86 1101.5q0 112.5 82 191.5t199 79q119 0 200.5 -77.5t81.5 -192.5t-82 -193t-200 -78q-117 0 -199 79t-82 191.5zM184 1102q0 -80 51.5 -132.5t129.5 -52.5q82 0 134 51.5t52 133.5t-52.5 134t-133.5 52q-78 0 -129.5 -52t-51.5 -134z" />
<glyph unicode="&#xbb;" horiz-adv-x="882" d="M102 135l244 301l-244 309l97 74l305 -383l-305 -377zM408 135l243 301l-243 309l94 74l305 -383l-305 -377z" />
<glyph unicode="&#xbc;" horiz-adv-x="1761" d="M193 1270l57 96h196v-819h-108v723h-145zM442 20l795 1373l80 -43l-795 -1377zM1044 133l549 746v-650h103v-96h-103v-133h-108v133h-441zM1237 229h248v336z" />
<glyph unicode="&#xbd;" horiz-adv-x="1761" d="M193 1270l57 96h196v-819h-108v723h-145zM442 20l795 1373l80 -43l-795 -1377zM1079 0l320 350q145 162 145 238q0 63 -47 106t-117 43q-147 0 -163 -166h-109q10 102 49 154q80 106 221 106q115 0 194 -69.5t79 -171.5q0 -70 -36 -130.5t-151 -185.5l-161 -178h346v-96 h-570z" />
<glyph unicode="&#xbe;" horiz-adv-x="1761" d="M84 768h104q23 -139 158 -139q68 0 114 44t46 109q0 145 -180 148v92q168 2 168 135q0 53 -39 89t-97 36q-66 0 -96.5 -28.5t-44.5 -100.5h-106q18 117 76.5 171t166.5 54q104 0 175 -62.5t71 -156.5q0 -61 -21.5 -102t-76.5 -80q111 -74 110 -199q0 -106 -76.5 -176 t-193.5 -70q-113 0 -180.5 61.5t-77.5 174.5zM444 20l795 1373l78 -43l-795 -1377zM1044 133l549 746v-650h103v-96h-103v-133h-108v133h-441zM1237 229h248v336z" />
<glyph unicode="&#xbf;" horiz-adv-x="892" d="M117 -12q0 82 33.5 153.5t93.5 112.5q53 35 213 82q137 39 137 149q0 63 -42 105.5t-106 42.5q-133 0 -145 -176h-147q4 145 83.5 229t211.5 84q125 0 209.5 -84t84.5 -211q0 -102 -59 -168.5t-188 -107.5q-98 -33 -122 -42.5t-48 -27.5q-59 -49 -60 -139 q0 -82 52.5 -135.5t134.5 -53.5q76 0 127 50.5t51 123.5q0 39 -13 93h150q10 -63 10 -103q0 -129 -96 -217t-238 -88q-139 0 -233 94.5t-94 233.5zM346 961q0 43 30 72.5t73 29.5q41 0 70.5 -29.5t29.5 -72.5q0 -41 -30 -71t-70 -30q-43 0 -73 30t-30 71z" />
<glyph unicode="&#xc0;" horiz-adv-x="1269" d="M14 0l629 1432l614 -1432h-167l-162 387h-584l-164 -387h-166zM326 1714l143 92l260 -266l-88 -65zM408 528h460l-227 547z" />
<glyph unicode="&#xc1;" horiz-adv-x="1269" d="M14 0l629 1432l614 -1432h-167l-162 387h-584l-164 -387h-166zM408 528h460l-227 547zM557 1540l258 266l143 -92l-313 -239z" />
<glyph unicode="&#xc2;" horiz-adv-x="1269" d="M14 0l629 1432l614 -1432h-167l-162 387h-584l-164 -387h-166zM362 1561l285 243l289 -243l-109 -84l-180 155l-178 -155zM408 528h460l-227 547z" />
<glyph unicode="&#xc3;" horiz-adv-x="1269" d="M14 0l629 1432l614 -1432h-167l-162 387h-584l-164 -387h-166zM317 1575q51 84 91.5 115.5t95.5 31.5q59 0 147 -41q86 -43 115 -43q53 0 100 86l88 -71q-66 -147 -194 -148q-47 0 -139 43q-86 39 -123 39q-29 0 -48.5 -18.5t-41.5 -67.5zM408 528h460l-227 547z" />
<glyph unicode="&#xc4;" horiz-adv-x="1269" d="M14 0l629 1432l614 -1432h-167l-162 387h-584l-164 -387h-166zM350 1606q0 43 31 73.5t74 30.5t73.5 -30.5t30.5 -73.5t-30.5 -74t-73.5 -31t-74 31t-31 74zM408 528h460l-227 547zM739 1606q0 43 31 73.5t74 30.5t73.5 -30.5t30.5 -73.5t-30.5 -74t-73.5 -31t-74 31 t-31 74z" />
<glyph unicode="&#xc5;" horiz-adv-x="1269" d="M14 0l629 1432l614 -1432h-167l-162 387h-584l-164 -387h-166zM408 528h460l-227 547zM467 1677q0 74 52 126t128 52q74 0 126 -52t52 -126q0 -76 -52 -128t-126 -52q-76 0 -128 52t-52 128zM559 1675q0 -35 25.5 -60.5t60.5 -25.5q37 0 62.5 25.5t25.5 60.5 q0 37 -25.5 62.5t-62.5 25.5q-35 0 -60.5 -25.5t-25.5 -62.5z" />
<glyph unicode="&#xc6;" horiz-adv-x="1839" d="M27 0l608 1366h600l59 -141h-551l170 -410h539l61 -141h-538l221 -533h555l61 -141h-714l-160 383h-582l-161 -383h-168zM422 524h457l-228 539z" />
<glyph unicode="&#xc7;" horiz-adv-x="1323" d="M102 678q0 293 210 502t503 209q115 0 207 -31t199 -105v-188q-188 180 -416 180q-223 0 -386 -167t-163 -396q0 -233 162 -398t391 -165q219 0 412 178v-188q-197 -133 -408 -134q-293 0 -502 207t-209 496zM557 -385l184 279l146 -66l-225 -266z" />
<glyph unicode="&#xc8;" horiz-adv-x="987" d="M178 0v1366h707v-141h-553v-408h538v-141h-538v-535h553v-141h-707zM211 1714l143 92l260 -266l-88 -65z" />
<glyph unicode="&#xc9;" horiz-adv-x="987" d="M178 0v1366h707v-141h-553v-408h538v-141h-538v-535h553v-141h-707zM375 1540l258 266l143 -92l-313 -239z" />
<glyph unicode="&#xca;" horiz-adv-x="987" d="M178 0v1366h707v-141h-553v-408h538v-141h-538v-535h553v-141h-707zM246 1561l284 243l289 -243l-108 -84l-181 155l-178 -155z" />
<glyph unicode="&#xcb;" horiz-adv-x="987" d="M178 0v1366h707v-141h-553v-408h538v-141h-538v-535h553v-141h-707zM236 1606q0 43 30.5 73.5t73.5 30.5t73.5 -30.5t30.5 -73.5t-30.5 -74t-73.5 -31t-73.5 31t-30.5 74zM625 1606q0 43 30.5 73.5t73.5 30.5t74 -30.5t31 -73.5t-31 -74t-74 -31t-73.5 31t-30.5 74z" />
<glyph unicode="&#xcc;" horiz-adv-x="507" d="M-57 1714l143 92l260 -266l-88 -65zM176 0v1366h154v-1366h-154z" />
<glyph unicode="&#xcd;" horiz-adv-x="507" d="M176 1540l258 266l144 -92l-314 -239zM178 0v1366h154v-1366h-154z" />
<glyph unicode="&#xce;" horiz-adv-x="507" d="M-33 1561l285 243l289 -243l-109 -84l-180 155l-178 -155zM178 0v1366h154v-1366h-154z" />
<glyph unicode="&#xcf;" horiz-adv-x="507" d="M2 1606q0 43 30.5 73.5t74 30.5t74 -30.5t30.5 -73.5t-30.5 -74t-74 -31t-74 31t-30.5 74zM176 0v1366h154v-1366h-154zM295 1606q0 43 30.5 73.5t73.5 30.5t74 -30.5t31 -73.5t-31 -74t-74 -31t-73.5 31t-30.5 74z" />
<glyph unicode="&#xd0;" horiz-adv-x="1296" d="M41 627v141h137v598h279q313 0 499 -158q236 -195 236 -528q0 -324 -240 -522q-102 -84 -216.5 -121t-280.5 -37h-277v627h-137zM332 141h131q260 0 417.5 149.5t157.5 393.5t-157.5 392.5t-417.5 148.5h-131v-457h297v-141h-297v-486z" />
<glyph unicode="&#xd1;" horiz-adv-x="1570" d="M178 0v1423l1063 -1116v1059h154v-1427l-1063 1114v-1053h-154zM469 1575q51 84 91 115.5t95 31.5q59 0 148 -41q86 -43 115 -43q53 0 100 86l88 -71q-66 -147 -195 -148q-47 0 -139 43q-86 39 -123 39q-29 0 -48 -18.5t-42 -67.5z" />
<glyph unicode="&#xd2;" horiz-adv-x="1626" d="M102 680q0 291 210 500t503 209q291 0 500 -208t209 -499t-209 -499t-500 -208q-295 0 -504 207t-209 498zM256 680q0 -231 164 -396t393 -165t393 165t164 396q0 236 -163 400.5t-394 164.5t-394 -164.5t-163 -400.5zM502 1714l143 92l260 -266l-88 -65z" />
<glyph unicode="&#xd3;" horiz-adv-x="1626" d="M102 680q0 291 210 500t503 209q291 0 500 -208t209 -499t-209 -499t-500 -208q-295 0 -504 207t-209 498zM256 680q0 -231 164 -396t393 -165t393 165t164 396q0 236 -163 400.5t-394 164.5t-394 -164.5t-163 -400.5zM735 1540l258 266l144 -92l-314 -239z" />
<glyph unicode="&#xd4;" horiz-adv-x="1626" d="M102 680q0 291 210 500t503 209q291 0 500 -208t209 -499t-209 -499t-500 -208q-295 0 -504 207t-209 498zM256 680q0 -231 164 -396t393 -165t393 165t164 396q0 236 -163 400.5t-394 164.5t-394 -164.5t-163 -400.5zM526 1561l285 243l289 -243l-109 -84l-180 155 l-178 -155z" />
<glyph unicode="&#xd5;" horiz-adv-x="1626" d="M102 680q0 291 210 500t503 209q291 0 500 -208t209 -499t-209 -499t-500 -208q-295 0 -504 207t-209 498zM256 680q0 -231 164 -396t393 -165t393 165t164 396q0 236 -163 400.5t-394 164.5t-394 -164.5t-163 -400.5zM496 1575q51 84 91 115.5t95 31.5q59 0 147 -41 q86 -43 115 -43q53 0 100 86l89 -71q-66 -147 -195 -148q-45 0 -139 43q-86 39 -123 39q-29 0 -48.5 -18.5t-41.5 -67.5z" />
<glyph unicode="&#xd6;" horiz-adv-x="1626" d="M102 680q0 291 210 500t503 209q291 0 500 -208t209 -499t-209 -499t-500 -208q-295 0 -504 207t-209 498zM256 680q0 -231 164 -396t393 -165t393 165t164 396q0 236 -163 400.5t-394 164.5t-394 -164.5t-163 -400.5zM514 1606q0 43 30.5 73.5t74 30.5t74 -30.5 t30.5 -73.5t-30.5 -74t-74 -31t-74 31t-30.5 74zM903 1606q0 43 31 73.5t74 30.5t73.5 -30.5t30.5 -73.5t-30.5 -74t-73.5 -31t-74 31t-31 74z" />
<glyph unicode="&#xd7;" d="M178 379l318 317l-318 318l86 86l318 -318l317 318l86 -86l-317 -318l317 -317l-86 -86l-317 317l-318 -317z" />
<glyph unicode="&#xd8;" horiz-adv-x="1638" d="M102 76l166 164q-154 199 -153 440q0 291 210 500t502 209q233 0 439 -154l166 164l100 -103l-162 -161q166 -209 166 -453q0 -291 -209 -499t-500 -208q-250 0 -456 164l-166 -166zM268 680q0 -188 111 -336l780 791q-158 111 -334 110q-231 0 -394 -164.5t-163 -400.5z M481 240q154 -121 344 -121q229 0 393 165t164 396q0 188 -118 352z" />
<glyph unicode="&#xd9;" horiz-adv-x="1329" d="M178 487v879h154v-838q0 -184 45 -262q41 -66 121 -106.5t168 -40.5t166.5 41t119.5 106q45 78 45 262v838h154v-879q0 -209 -90 -323q-68 -88 -173.5 -138.5t-221.5 -50.5q-119 0 -225.5 50.5t-172.5 138.5q-90 114 -90 323zM354 1714l144 92l260 -266l-88 -65z" />
<glyph unicode="&#xda;" horiz-adv-x="1329" d="M178 487v879h154v-838q0 -184 45 -262q41 -66 121 -106.5t168 -40.5t166.5 41t119.5 106q45 78 45 262v838h154v-879q0 -209 -90 -323q-68 -88 -173.5 -138.5t-221.5 -50.5q-119 0 -225.5 50.5t-172.5 138.5q-90 114 -90 323zM586 1540l258 266l143 -92l-313 -239z" />
<glyph unicode="&#xdb;" horiz-adv-x="1329" d="M178 487v879h154v-838q0 -184 45 -262q41 -66 121 -106.5t168 -40.5t166.5 41t119.5 106q45 78 45 262v838h154v-879q0 -209 -90 -323q-68 -88 -173.5 -138.5t-221.5 -50.5q-119 0 -225.5 50.5t-172.5 138.5q-90 114 -90 323zM379 1561l285 243l288 -243l-108 -84 l-180 155l-179 -155z" />
<glyph unicode="&#xdc;" horiz-adv-x="1329" d="M178 487v879h154v-838q0 -184 45 -262q41 -66 121 -106.5t168 -40.5t166.5 41t119.5 106q45 78 45 262v838h154v-879q0 -209 -90 -323q-68 -88 -173.5 -138.5t-221.5 -50.5q-119 0 -225.5 50.5t-172.5 138.5q-90 114 -90 323zM367 1606q0 43 30.5 73.5t73.5 30.5 t73.5 -30.5t30.5 -73.5t-30.5 -74t-73.5 -31t-73.5 31t-30.5 74zM756 1606q0 43 30.5 73.5t73.5 30.5t74 -30.5t31 -73.5t-31 -74t-74 -31t-73.5 31t-30.5 74z" />
<glyph unicode="&#xdd;" horiz-adv-x="1081" d="M14 1366h176l349 -610l352 610h178l-455 -778v-588h-153v588zM463 1540l258 266l145 -92l-315 -239z" />
<glyph unicode="&#xde;" horiz-adv-x="935" d="M178 0v1366h154v-192h94q236 0 344 -95q127 -111 127 -291q0 -176 -115.5 -278t-316.5 -102h-133v-408h-154zM332 547h123q141 0 217 63.5t76 182.5q0 240 -304 239h-112v-485z" />
<glyph unicode="&#xdf;" horiz-adv-x="1073" d="M59 715v135h80v283q0 184 94.5 284.5t264.5 100.5q152 0 251 -97.5t99 -244.5q0 -182 -152 -265q133 -51 212 -168.5t79 -267.5q0 -205 -146.5 -346t-371.5 -154v144q168 12 268.5 111.5t100.5 250.5q0 88 -42 167t-114 120q-76 45 -213 63v132q113 6 171 62t58 159 q0 88 -57 144t-147 56q-63 0 -112.5 -27.5t-70.5 -74.5q-27 -53 -26 -215v-1067h-146v715h-80z" />
<glyph unicode="&#xe0;" horiz-adv-x="899" d="M92 190q-7 34 -6 66q0 56 20 103q33 75 97.5 117t146.5 64q69 18 138 18l26 -1q82 -4 145 -29q-4 86 -53 137.5t-119 62.5q-38 6 -77 6q-32 0 -66 -4q-74 -9 -137 -38l-53 113q92 57 227 66q22 2 43 2q108 0 190 -39q184 -92 185 -379v-455h-140l-6 111 q-68 -84 -191 -114q-47 -11 -92 -11q-74 0 -143 30q-110 49 -135 174zM245 314q-9 -25 -9 -49q0 -38 20 -77q33 -57 101 -68q20 -3 41 -4q47 0 92 19q65 27 115 87.5t50 133.5v50q-82 31 -170 33q-7 0 -13 1q-81 0 -155 -34q-50 -30 -72 -92zM291 1296l151 68l215 -295 l-90 -51z" />
<glyph unicode="&#xe1;" horiz-adv-x="899" d="M92 190q-7 34 -6 66q0 56 20 103q33 75 97.5 117t146.5 64q69 18 138 18l26 -1q82 -4 145 -29q-4 86 -53 137.5t-119 62.5q-38 6 -77 6q-32 0 -66 -4q-74 -9 -137 -38l-53 113q92 57 227 66q22 2 43 2q108 0 190 -39q184 -92 185 -379v-455h-140l-6 111 q-68 -84 -191 -114q-47 -11 -92 -11q-74 0 -143 30q-110 49 -135 174zM245 314q-9 -25 -9 -49q0 -38 20 -77q33 -57 101 -68q20 -3 41 -4q47 0 92 19q65 27 115 87.5t50 133.5v50q-82 31 -170 33q-7 0 -13 1q-81 0 -155 -34q-50 -30 -72 -92zM293 1069l215 295l151 -68 l-276 -278z" />
<glyph unicode="&#xe2;" horiz-adv-x="899" d="M92 190q-7 34 -6 66q0 56 20 103q33 75 97.5 117t146.5 64q69 18 138 18l26 -1q82 -4 145 -29q-4 86 -53 137.5t-119 62.5q-38 6 -77 6q-32 0 -66 -4q-74 -9 -137 -38l-53 113q92 57 227 66q22 2 43 2q108 0 190 -39q184 -92 185 -379v-455h-140l-6 111 q-68 -84 -191 -114q-47 -11 -92 -11q-74 0 -143 30q-110 49 -135 174zM190 1098l283 241l285 -241l-107 -80l-178 153l-180 -153zM245 314q-9 -25 -9 -49q0 -38 20 -77q33 -57 101 -68q20 -3 41 -4q47 0 92 19q65 27 115 87.5t50 133.5v50q-82 31 -170 33q-7 0 -13 1 q-81 0 -155 -34q-50 -30 -72 -92z" />
<glyph unicode="&#xe3;" horiz-adv-x="899" d="M92 190q-7 34 -6 66q0 56 20 103q33 75 97.5 117t146.5 64q69 18 138 18l26 -1q82 -4 145 -29q-4 86 -53 137.5t-119 62.5q-38 6 -77 6q-32 0 -66 -4q-74 -9 -137 -38l-53 113q92 57 227 66q22 2 43 2q108 0 190 -39q184 -92 185 -379v-455h-140l-6 111 q-68 -84 -191 -114q-47 -11 -92 -11q-74 0 -143 30q-110 49 -135 174zM137 1087q49 82 89 113t96 31q57 0 145 -41q90 -41 117 -41q53 0 100 86l86 -70q-66 -145 -192 -145q-43 0 -140 43q-90 39 -123 39q-29 0 -49 -18.5t-41 -65.5zM245 314q-9 -25 -9 -49q0 -38 20 -77 q33 -57 101 -68q20 -3 41 -4q47 0 92 19q65 27 115 87.5t50 133.5v50q-82 31 -170 33q-7 0 -13 1q-81 0 -155 -34q-50 -30 -72 -92z" />
<glyph unicode="&#xe4;" horiz-adv-x="899" d="M92 190q-7 34 -6 66q0 56 20 103q33 75 97.5 117t146.5 64q69 18 138 18l26 -1q82 -4 145 -29q-4 86 -53 137.5t-119 62.5q-38 6 -77 6q-32 0 -66 -4q-74 -9 -137 -38l-53 113q92 57 227 66q22 2 43 2q108 0 190 -39q184 -92 185 -379v-455h-140l-6 111 q-68 -84 -191 -114q-47 -11 -92 -11q-74 0 -143 30q-110 49 -135 174zM174 1126q0 43 29.5 73t72.5 30t73 -30t30 -73t-31 -72.5t-71.5 -29.5t-71.5 30.5t-31 71.5zM245 314q-9 -25 -9 -49q0 -38 20 -77q33 -57 101 -68q20 -3 41 -4q47 0 92 19q65 27 115 87.5t50 133.5v50 q-82 31 -170 33q-7 0 -13 1q-81 0 -155 -34q-50 -30 -72 -92zM530 1126q0 43 30 73t73 30t72.5 -30t29.5 -73t-30.5 -72.5t-71.5 -29.5t-72 30.5t-31 71.5z" />
<glyph unicode="&#xe5;" horiz-adv-x="899" d="M92 190q-7 34 -6 66q0 56 20 103q33 75 97.5 117t146.5 64q69 18 138 18l26 -1q82 -4 145 -29q-4 86 -53 137.5t-119 62.5q-38 6 -77 6q-32 0 -66 -4q-74 -9 -137 -38l-53 113q92 57 227 66q22 2 43 2q108 0 190 -39q184 -92 185 -379v-455h-140l-6 111 q-68 -84 -191 -114q-47 -11 -92 -11q-74 0 -143 30q-110 49 -135 174zM245 314q-9 -25 -9 -49q0 -38 20 -77q33 -57 101 -68q20 -3 41 -4q47 0 92 19q65 27 115 87.5t50 133.5v50q-82 31 -170 33q-7 0 -13 1q-81 0 -155 -34q-50 -30 -72 -92zM279 1194q0 72 52 124t124 52 q74 0 125 -51t51 -125q0 -72 -52.5 -124t-124 -52t-123.5 52t-52 124zM369 1196q0 -35 25.5 -60.5t60 -25.5t60.5 25.5t26 60.5t-26 59.5t-60.5 24.5t-60 -24.5t-25.5 -59.5z" />
<glyph unicode="&#xe6;" horiz-adv-x="1581" d="M84 250q0 127 98.5 206t255.5 79q127 0 242 -74q-2 143 -60.5 210.5t-181.5 67.5q-102 0 -262 -51v135q164 47 270 47q113 0 196 -45t120 -127q47 80 135 126t193 46q190 0 298.5 -127t106.5 -348h-666q10 -131 84 -208.5t191 -77.5q154 0 258 178l123 -72 q-76 -125 -167 -182.5t-216 -57.5q-221 0 -334 170q-53 -90 -129 -130t-190 -40q-164 0 -264.5 76t-100.5 199zM227 254q0 -66 60.5 -105.5t156.5 -39.5q100 0 164 43t64 110q0 59 -62.5 99t-154.5 40q-102 0 -165 -39.5t-63 -107.5zM842 520h497q-18 102 -83.5 160.5 t-161.5 58.5q-203 0 -252 -219z" />
<glyph unicode="&#xe7;" horiz-adv-x="890" d="M84 420q0 190 131 319t324 129q139 0 262 -80v-192q-72 78 -131.5 108.5t-137.5 30.5q-127 0 -213 -90t-86 -223q0 -131 85 -222t208 -91q84 0 145.5 31.5t135.5 115.5v-193q-141 -88 -272 -88q-190 0 -320.5 128.5t-130.5 316.5zM305 -375l172 269l135 -56l-204 -262z " />
<glyph unicode="&#xe8;" horiz-adv-x="985" d="M84 426q0 195 115.5 318.5t298 123.5t293 -122.5t110.5 -321.5v-29h-663q6 -131 80.5 -208.5t189.5 -77.5q84 0 142.5 39.5t119.5 138.5l123 -70q-137 -242 -393 -242q-184 0 -300 125t-116 326zM213 1296l152 68l215 -295l-91 -51zM248 518h500q-20 100 -88 159.5 t-162 59.5q-92 0 -164 -62.5t-86 -156.5z" />
<glyph unicode="&#xe9;" horiz-adv-x="985" d="M84 426q0 195 115.5 318.5t298 123.5t293 -122.5t110.5 -321.5v-29h-663q6 -131 80.5 -208.5t189.5 -77.5q84 0 142.5 39.5t119.5 138.5l123 -70q-137 -242 -393 -242q-184 0 -300 125t-116 326zM248 518h500q-20 100 -88 159.5t-162 59.5q-92 0 -164 -62.5t-86 -156.5z M403 1069l215 295l152 -68l-276 -278z" />
<glyph unicode="&#xea;" horiz-adv-x="985" d="M84 426q0 195 115.5 318.5t298 123.5t293 -122.5t110.5 -321.5v-29h-663q6 -131 80.5 -208.5t189.5 -77.5q84 0 142.5 39.5t119.5 138.5l123 -70q-137 -242 -393 -242q-184 0 -300 125t-116 326zM209 1098l283 241l284 -241l-106 -80l-178 153l-181 -153zM248 518h500 q-20 100 -88 159.5t-162 59.5q-92 0 -164 -62.5t-86 -156.5z" />
<glyph unicode="&#xeb;" horiz-adv-x="985" d="M84 426q0 195 115.5 318.5t298 123.5t293 -122.5t110.5 -321.5v-29h-663q6 -131 80.5 -208.5t189.5 -77.5q84 0 142.5 39.5t119.5 138.5l123 -70q-137 -242 -393 -242q-184 0 -300 125t-116 326zM211 1126q0 43 29.5 73t72.5 30t73 -30t30 -73t-31 -72.5t-72 -29.5 t-71.5 30.5t-30.5 71.5zM248 518h500q-20 100 -88 159.5t-162 59.5q-92 0 -164 -62.5t-86 -156.5zM567 1126q0 43 30 73t73 30t72.5 -30t29.5 -73t-30.5 -72.5t-71.5 -29.5t-72 30.5t-31 71.5z" />
<glyph unicode="&#xec;" horiz-adv-x="468" d="M-45 1296l151 68l216 -295l-91 -51zM162 0v850h145v-850h-145z" />
<glyph unicode="&#xed;" horiz-adv-x="468" d="M147 1069l215 295l152 -68l-276 -278zM162 0v850h145v-850h-145z" />
<glyph unicode="&#xee;" horiz-adv-x="468" d="M-49 1098l282 241l285 -241l-106 -80l-179 153l-180 -153zM162 0v850h145v-850h-145z" />
<glyph unicode="&#xef;" horiz-adv-x="468" d="M-12 1126q0 43 29.5 73t72.5 30t73 -30t30 -73t-31 -72.5t-72 -29.5t-71.5 30.5t-30.5 71.5zM162 0v850h145v-850h-145zM276 1126q0 43 30 73t73 30t72.5 -30t29.5 -73t-30.5 -72.5t-71.5 -29.5t-72 30.5t-31 71.5z" />
<glyph unicode="&#xf0;" horiz-adv-x="1069" d="M84 421.5q0 188.5 130 318.5t318 130q135 0 232 -65q-53 133 -119.5 223t-189.5 197l-295 -150l-45 90l241 127q-115 74 -256 117l58 88q172 -47 313 -137l293 149l47 -90l-246 -125q418 -362 418 -852q0 -205 -126 -336t-325 -131q-190 0 -319 129t-129 317.5zM233 422 q0 -135 85 -224t212 -89q133 0 218.5 88t85.5 225q0 139 -85 227t-219 88q-129 0 -213 -89t-84 -226z" />
<glyph unicode="&#xf1;" horiz-adv-x="960" d="M139 0v850h146v-102q55 68 110.5 95t134.5 27q78 0 143.5 -31.5t100.5 -84.5q47 -76 47 -228v-526h-145v502q0 131 -40 184t-140 53q-111 0 -161 -74.5t-50 -240.5v-424h-146zM164 1087q49 82 89 113t95 31q57 0 146 -41q90 -41 116 -41q53 0 101 86l86 -70 q-66 -145 -193 -145q-43 0 -139 43q-90 39 -123 39q-29 0 -49.5 -18.5t-40.5 -65.5z" />
<glyph unicode="&#xf2;" horiz-adv-x="1067" d="M84 422q0 186 131 316t317 130q190 0 320.5 -129t130.5 -317.5t-130 -317.5t-321 -129q-186 0 -317 130.5t-131 316.5zM233 422q0 -135 85 -224t212 -89q133 0 218.5 88t85.5 225t-85 225t-219 88q-129 0 -213 -89t-84 -224zM254 1296l152 68l215 -295l-91 -51z" />
<glyph unicode="&#xf3;" horiz-adv-x="1067" d="M84 422q0 186 131 316t317 130q190 0 320.5 -129t130.5 -317.5t-130 -317.5t-321 -129q-186 0 -317 130.5t-131 316.5zM233 422q0 -135 85 -224t212 -89q133 0 218.5 88t85.5 225t-85 225t-219 88q-129 0 -213 -89t-84 -224zM444 1069l215 295l152 -68l-276 -278z" />
<glyph unicode="&#xf4;" horiz-adv-x="1067" d="M84 422q0 186 131 316t317 130q190 0 320.5 -129t130.5 -317.5t-130 -317.5t-321 -129q-186 0 -317 130.5t-131 316.5zM233 422q0 -135 85 -224t212 -89q133 0 218.5 88t85.5 225t-85 225t-219 88q-129 0 -213 -89t-84 -224zM250 1098l282 241l285 -241l-106 -80 l-179 153l-180 -153z" />
<glyph unicode="&#xf5;" horiz-adv-x="1067" d="M84 422q0 186 131 316t317 130q190 0 320.5 -129t130.5 -317.5t-130 -317.5t-321 -129q-186 0 -317 130.5t-131 316.5zM217 1087q49 82 89 113t95 31q57 0 146 -41q90 -41 117 -41q53 0 100 86l86 -70q-66 -145 -193 -145q-43 0 -139 43q-90 39 -123 39q-29 0 -49 -18.5 t-41 -65.5zM233 422q0 -135 85 -224t212 -89q133 0 218.5 88t85.5 225t-85 225t-219 88q-129 0 -213 -89t-84 -224z" />
<glyph unicode="&#xf6;" horiz-adv-x="1067" d="M84 422q0 186 131 316t317 130q190 0 320.5 -129t130.5 -317.5t-130 -317.5t-321 -129q-186 0 -317 130.5t-131 316.5zM233 422q0 -135 85 -224t212 -89q133 0 218.5 88t85.5 225t-85 225t-219 88q-129 0 -213 -89t-84 -224zM252 1126q0 43 29.5 73t72.5 30t73 -30 t30 -73t-31 -72.5t-72 -29.5t-71.5 30.5t-30.5 71.5zM608 1126q0 43 30 73t73 30t72.5 -30t29.5 -73t-30.5 -72.5t-71.5 -29.5t-72 30.5t-31 71.5z" />
<glyph unicode="&#xf7;" horiz-adv-x="1124" d="M20 477v113h1078v-113h-1078zM432 119q0 53 38 90t89 37t89 -37t38 -90t-38 -90t-89 -37t-89 37t-38 90zM432 936q0 51 38 89t89 38t89 -38t38 -89t-38 -89t-89 -38t-89 38t-38 89z" />
<glyph unicode="&#xf8;" horiz-adv-x="1144" d="M84 31l127 127q-84 119 -84 264q0 186 130 316t316 130q145 0 269 -84l125 125l92 -90l-125 -125q90 -121 90 -272q0 -188 -130 -317.5t-321 -129.5q-141 0 -268 88l-127 -124zM276 420q0 -84 39 -164l426 434q-80 45 -168 45q-129 0 -213 -89t-84 -226zM403 158 q80 -49 168 -49q133 0 218 88t85 225q0 92 -43 176z" />
<glyph unicode="&#xf9;" horiz-adv-x="952" d="M139 338v512h146v-496q0 -129 46 -187t146.5 -58t145.5 58t45 187v496h145v-512q0 -170 -78 -256q-94 -106 -258 -107q-166 0 -260 107q-78 86 -78 256zM197 1296l151 68l215 -295l-90 -51z" />
<glyph unicode="&#xfa;" horiz-adv-x="952" d="M139 338v512h146v-496q0 -129 46 -187t146.5 -58t145.5 58t45 187v496h145v-512q0 -170 -78 -256q-94 -106 -258 -107q-166 0 -260 107q-78 86 -78 256zM389 1069l215 295l152 -68l-277 -278z" />
<glyph unicode="&#xfb;" horiz-adv-x="952" d="M139 338v512h146v-496q0 -129 46 -187t146.5 -58t145.5 58t45 187v496h145v-512q0 -170 -78 -256q-94 -106 -258 -107q-166 0 -260 107q-78 86 -78 256zM193 1098l282 241l285 -241l-107 -80l-178 153l-180 -153z" />
<glyph unicode="&#xfc;" horiz-adv-x="952" d="M139 338v512h146v-496q0 -129 46 -187t146.5 -58t145.5 58t45 187v496h145v-512q0 -170 -78 -256q-94 -106 -258 -107q-166 0 -260 107q-78 86 -78 256zM195 1126q0 43 29.5 73t72.5 30t72.5 -30t29.5 -73t-30.5 -72.5t-71.5 -29.5t-71.5 30.5t-30.5 71.5zM551 1126 q0 43 29.5 73t72.5 30t73 -30t30 -73t-31 -72.5t-72 -29.5t-71.5 30.5t-30.5 71.5z" />
<glyph unicode="&#xfd;" horiz-adv-x="942" d="M16 850h168l301 -608l275 608h166l-629 -1329h-164l275 559zM383 1069l215 295l152 -68l-277 -278z" />
<glyph unicode="&#xfe;" horiz-adv-x="1073" d="M139 -479v1972h146v-764q115 139 297 139q176 0 290.5 -129t114.5 -329q0 -186 -116.5 -310.5t-290.5 -124.5q-172 0 -295 144v-598h-146zM276 416q0 -135 80 -221t205 -86q117 0 197 88t80 217q0 141 -78 231t-201 90q-127 0 -205 -88t-78 -231z" />
<glyph unicode="&#xff;" horiz-adv-x="942" d="M16 850h168l301 -608l275 608h166l-629 -1329h-164l275 559zM190 1126q0 43 30 73t73 30t72.5 -30t29.5 -73t-30.5 -72.5t-71.5 -29.5t-72 30.5t-31 71.5zM547 1126q0 43 29.5 73t72.5 30t73 -30t30 -73t-31 -72.5t-72 -29.5t-71.5 30.5t-30.5 71.5z" />
<glyph unicode="&#x152;" horiz-adv-x="2162" d="M102 680q0 291 207 500t496 209q344 0 557 -291v268h698v-141h-544v-408h530v-141h-530v-535h544v-141h-698v262q-207 -287 -553 -287q-287 0 -497 209t-210 496zM256 686q0 -236 162 -401.5t389 -165.5q229 0 392 165t163 394q0 236 -163 401.5t-394 165.5 q-221 0 -385 -167t-164 -392z" />
<glyph unicode="&#x153;" horiz-adv-x="1742" d="M84 420q0 188 132 318t325 130q113 0 211 -54t151 -146q47 94 139.5 147t206.5 53q184 0 296 -120.5t112 -319.5v-31h-670q6 -127 83 -207.5t190 -80.5q168 0 262 180l123 -72q-137 -242 -390 -242q-115 0 -211 55.5t-141 147.5q-59 -96 -158.5 -149.5t-216.5 -53.5 q-184 0 -314 130.5t-130 314.5zM233 420q0 -137 85 -224t219 -87q127 0 210.5 88t83.5 221q0 139 -82.5 228t-211.5 89q-135 0 -219.5 -88t-84.5 -227zM999 520h504q-45 215 -252 215q-201 0 -252 -215z" />
<glyph unicode="&#x178;" horiz-adv-x="1081" d="M14 1366h176l349 -610l352 610h178l-455 -778v-588h-153v588zM242 1606q0 43 30.5 73.5t73.5 30.5t74 -30.5t31 -73.5t-31 -74t-74 -31t-73.5 31t-30.5 74zM631 1606q0 43 30.5 73.5t73.5 30.5t74 -30.5t31 -73.5t-31 -74t-74 -31t-73.5 31t-30.5 74z" />
<glyph unicode="&#x2c6;" horiz-adv-x="1024" d="M229 1098l283 241l285 -241l-107 -80l-178 153l-180 -153z" />
<glyph unicode="&#x2dc;" horiz-adv-x="1024" d="M197 1087q49 82 89 113t95 31q57 0 145 -41q90 -41 117 -41q53 0 100 86l86 -70q-66 -145 -192 -145q-43 0 -139 43q-90 39 -123 39q-29 0 -49.5 -18.5t-40.5 -65.5z" />
<glyph unicode="&#x2013;" d="M240 371v131h682v-131h-682z" />
<glyph unicode="&#x2014;" horiz-adv-x="1114" d="M0 371v131h1114v-131h-1114z" />
<glyph unicode="&#x2018;" horiz-adv-x="534" d="M117 973l205 461l98 -39l-170 -471z" />
<glyph unicode="&#x2019;" horiz-adv-x="516" d="M94 963l170 471l133 -50l-204 -460z" />
<glyph unicode="&#x201a;" horiz-adv-x="516" d="M94 -266l170 471l133 -49l-204 -461z" />
<glyph unicode="&#x201c;" horiz-adv-x="835" d="M117 973l205 461l98 -39l-170 -471zM416 973l207 461l98 -39l-170 -471z" />
<glyph unicode="&#x201d;" horiz-adv-x="835" d="M117 963l170 471l133 -50l-205 -460zM416 963l170 471l135 -50l-207 -460z" />
<glyph unicode="&#x201e;" horiz-adv-x="835" d="M117 -272l170 473l133 -49l-205 -463zM416 -272l170 473l135 -49l-207 -463z" />
<glyph unicode="&#x2022;" horiz-adv-x="1366" d="M401 694q0 117 84 200t203 83q115 0 198 -83t83 -200q0 -119 -83 -201.5t-198 -82.5q-119 0 -203 82.5t-84 201.5z" />
<glyph unicode="&#x2026;" horiz-adv-x="1527" d="M154 80q0 41 29.5 70.5t70.5 29.5t70.5 -29.5t29.5 -70.5t-29.5 -70.5t-70.5 -29.5t-70.5 29.5t-29.5 70.5zM664 80q0 41 29.5 70.5t70.5 29.5t70.5 -29.5t29.5 -70.5t-29.5 -70.5t-70.5 -29.5t-70.5 29.5t-29.5 70.5zM1171 80q0 41 30 70.5t71 29.5t70.5 -29.5 t29.5 -70.5t-29.5 -70.5t-70.5 -29.5t-71 29.5t-30 70.5z" />
<glyph unicode="&#x2039;" horiz-adv-x="577" d="M76 436l305 383l96 -74l-244 -309l244 -301l-96 -76z" />
<glyph unicode="&#x203a;" horiz-adv-x="577" d="M102 135l244 301l-244 309l97 74l305 -383l-307 -377z" />
<glyph unicode="&#x20ac;" />
<glyph unicode="&#x2122;" horiz-adv-x="1476" d="M8 1274v92h471v-92h-188v-686h-98v686h-185zM553 588l133 829l293 -647l301 647l125 -829h-96l-70 528l-260 -567l-256 567l-76 -528h-94z" />
<glyph unicode="&#xe000;" horiz-adv-x="850" d="M0 850h850v-850h-850v850z" />
<glyph unicode="&#xfb01;" horiz-adv-x="804" d="M59 715v135h80v235q0 305 248 306q49 0 113 -19v-147q-57 20 -99 20q-70 0 -93 -40t-23 -154v-201h290h146v-850h-146v715h-290v-715h-146v715h-80z" />
<glyph unicode="&#xfb02;" horiz-adv-x="915" d="M59 715v135h80v235q0 305 248 306q49 0 113 -19v-147q-57 20 -99 20q-70 0 -93 -40t-23 -154v-201h215v-135h-215v-715h-146v715h-80zM631 0v1366h145v-1366h-145z" />
<glyph unicode="&#xfb03;" horiz-adv-x="1404" d="M59 715v135h80v235q0 305 248 306q49 0 113 -19v-147q-57 20 -99 20q-70 0 -93 -40t-23 -154v-201h215v-135h-215v-715h-146v715h-80zM549 715v135h80v235q0 305 248 306q49 0 112 -19v-147q-57 20 -98 20q-70 0 -93.5 -40t-23.5 -154v-201h215v-135h-215v-715h-145v715 h-80zM1085 1126q0 43 31 74t74 31t73.5 -31t30.5 -74t-30.5 -73.5t-73.5 -30.5t-74 30.5t-31 73.5zM1118 0v850h146v-850h-146z" />
<glyph unicode="&#xfb04;" horiz-adv-x="1402" d="M59 715v135h80v235q0 305 248 306q49 0 113 -19v-147q-57 20 -99 20q-70 0 -93 -40t-23 -154v-201h215v-135h-215v-715h-146v715h-80zM549 715v135h80v235q0 305 248 306q49 0 112 -19v-147q-57 20 -98 20q-70 0 -93.5 -40t-23.5 -154v-201h215v-135h-215v-715h-145v715 h-80zM1118 0v1366h146v-1366h-146z" />
</font>
</defs>
</svg>
